# xmcd
#
# Track frame offsets: 
#        150
#        17137
#        37551
#        52915
#        72987
#        94285
#        127694
#        145292
#        162981
#        186409
#        204923
#        231809
#
# Disc length: 3302 seconds
#
# Revision: 0
# Processed by: cddbd v1.5.2PL0 Copyright (c) Steve Scherf et al.
# Submitted via: ExactAudioCopy v0.99pb5
#
DISCID=990ce40c
DTITLE=Blank Robert Carl - Last time I saw Dave
DYEAR=2010
DGENRE=Soul
TTITLE0=Times like these
TTITLE1=Last time I saw Dave
TTITLE2=Whatever she does
TTITLE3=Words
TTITLE4=Calling out for someone
TTITLE5=Pie in the sky
TTITLE6=Eventually
TTITLE7=Jonathan
TTITLE8=I'll lie to you
TTITLE9=Here tonight
TTITLE10=Memories
TTITLE11=Bonus track
EXTD=
EXTT0=
EXTT1=
EXTT2=
EXTT3=
EXTT4=
EXTT5=
EXTT6=
EXTT7=
EXTT8=
EXTT9=
EXTT10=
EXTT11=
PLAYORDER=
